<svg width="161" height="33" viewBox="0 0 161 33" fill="none" xmlns="http://www.w3.org/2000/svg">
<path d="M9.476 26.288C7.676 26.288 6.128 25.928 4.832 25.208C3.536 24.488 2.54 23.456 1.844 22.112C1.148 20.768 0.8 19.172 0.8 17.324C0.8 15.5 1.148 13.916 1.844 12.572C2.54 11.204 3.5 10.136 4.724 9.368C5.972 8.6 7.4 8.216 9.008 8.216C10.184 8.216 11.216 8.42 12.104 8.828C13.016 9.212 13.784 9.776 14.408 10.52C15.056 11.24 15.548 12.128 15.884 13.184C16.22 14.216 16.388 15.392 16.388 16.712C16.388 17.048 16.292 17.3 16.1 17.468C15.932 17.636 15.692 17.72 15.38 17.72H2.384V16.1H15.02L14.444 16.568C14.444 15.176 14.24 14 13.832 13.04C13.424 12.056 12.812 11.3 11.996 10.772C11.204 10.244 10.22 9.98 9.044 9.98C7.724 9.98 6.608 10.292 5.696 10.916C4.784 11.516 4.1 12.356 3.644 13.436C3.188 14.492 2.96 15.716 2.96 17.108V17.288C2.96 19.592 3.524 21.368 4.652 22.616C5.78 23.84 7.364 24.452 9.404 24.452C10.292 24.452 11.144 24.332 11.96 24.092C12.8 23.852 13.616 23.444 14.408 22.868C14.648 22.7 14.876 22.616 15.092 22.616C15.332 22.616 15.524 22.676 15.668 22.796C15.836 22.916 15.944 23.072 15.992 23.264C16.064 23.432 16.052 23.624 15.956 23.84C15.884 24.032 15.728 24.212 15.488 24.38C14.72 25.004 13.796 25.484 12.716 25.82C11.636 26.132 10.556 26.288 9.476 26.288ZM16.2204 32.696C15.8604 32.696 15.5844 32.6 15.3924 32.408C15.2004 32.216 15.1044 31.94 15.1044 31.58V9.44C15.1044 9.056 15.2004 8.768 15.3924 8.576C15.5844 8.384 15.8604 8.288 16.2204 8.288C16.5564 8.288 16.8204 8.384 17.0124 8.576C17.2044 8.768 17.3004 9.056 17.3004 9.44V13.112L16.9044 12.896C17.3124 11.456 18.0924 10.316 19.2444 9.476C20.3964 8.636 21.7884 8.216 23.4204 8.216C24.9804 8.216 26.3364 8.588 27.4884 9.332C28.6644 10.076 29.5644 11.12 30.1884 12.464C30.8364 13.808 31.1604 15.404 31.1604 17.252C31.1604 19.1 30.8364 20.708 30.1884 22.076C29.5644 23.42 28.6764 24.464 27.5244 25.208C26.3724 25.928 25.0044 26.288 23.4204 26.288C21.7884 26.288 20.3964 25.868 19.2444 25.028C18.0924 24.188 17.3124 23.072 16.9044 21.68H17.3004V31.58C17.3004 31.94 17.2044 32.216 17.0124 32.408C16.8204 32.6 16.5564 32.696 16.2204 32.696ZM23.0964 24.452C24.2724 24.452 25.2924 24.176 26.1564 23.624C27.0444 23.048 27.7284 22.22 28.2084 21.14C28.6884 20.06 28.9284 18.764 28.9284 17.252C28.9284 14.972 28.4004 13.208 27.3444 11.96C26.2884 10.712 24.8724 10.088 23.0964 10.088C21.9204 10.088 20.8884 10.376 20.0004 10.952C19.1364 11.504 18.4644 12.32 17.9844 13.4C17.5044 14.456 17.2644 15.74 17.2644 17.252C17.2644 19.556 17.7924 21.332 18.8484 22.58C19.9044 23.828 21.3204 24.452 23.0964 24.452Z" fill="#3E6A17"/>
<path d="M42.9 26.36C41.364 26.36 40.008 25.988 38.832 25.244C37.68 24.5 36.78 23.444 36.132 22.076C35.484 20.684 35.16 19.052 35.16 17.18C35.16 15.284 35.484 13.664 36.132 12.32C36.78 10.952 37.68 9.896 38.832 9.152C40.008 8.408 41.364 8.036 42.9 8.036C44.364 8.036 45.636 8.396 46.716 9.116C47.82 9.836 48.564 10.784 48.948 11.96H48.552V2.6C48.552 1.856 48.744 1.292 49.128 0.907999C49.512 0.523998 50.064 0.331998 50.784 0.331998C51.504 0.331998 52.056 0.523998 52.44 0.907999C52.848 1.292 53.052 1.856 53.052 2.6V23.984C53.052 24.728 52.86 25.304 52.476 25.712C52.092 26.096 51.54 26.288 50.82 26.288C50.1 26.288 49.548 26.096 49.164 25.712C48.78 25.304 48.588 24.728 48.588 23.984V21.176L48.984 22.256C48.624 23.504 47.892 24.5 46.788 25.244C45.684 25.988 44.388 26.36 42.9 26.36ZM44.16 22.94C45.048 22.94 45.828 22.724 46.5 22.292C47.172 21.86 47.688 21.224 48.048 20.384C48.432 19.52 48.624 18.452 48.624 17.18C48.624 15.26 48.216 13.832 47.4 12.896C46.584 11.936 45.504 11.456 44.16 11.456C43.272 11.456 42.492 11.672 41.82 12.104C41.148 12.512 40.62 13.148 40.236 14.012C39.876 14.852 39.696 15.908 39.696 17.18C39.696 19.076 40.104 20.516 40.92 21.5C41.736 22.46 42.816 22.94 44.16 22.94ZM66.394 26.36C64.402 26.36 62.686 25.988 61.246 25.244C59.806 24.5 58.69 23.444 57.898 22.076C57.13 20.708 56.746 19.088 56.746 17.216C56.746 15.392 57.118 13.796 57.862 12.428C58.63 11.06 59.674 9.992 60.994 9.224C62.338 8.432 63.862 8.036 65.566 8.036C66.814 8.036 67.93 8.24 68.914 8.648C69.922 9.056 70.774 9.644 71.47 10.412C72.19 11.18 72.73 12.116 73.09 13.22C73.474 14.3 73.666 15.524 73.666 16.892C73.666 17.324 73.51 17.66 73.198 17.9C72.91 18.116 72.49 18.224 71.938 18.224H60.382V15.632H70.498L69.922 16.172C69.922 15.068 69.754 14.144 69.418 13.4C69.106 12.656 68.638 12.092 68.014 11.708C67.414 11.3 66.658 11.096 65.746 11.096C64.738 11.096 63.874 11.336 63.154 11.816C62.458 12.272 61.918 12.932 61.534 13.796C61.174 14.636 60.994 15.644 60.994 16.82V17.072C60.994 19.04 61.45 20.516 62.362 21.5C63.298 22.46 64.666 22.94 66.466 22.94C67.09 22.94 67.786 22.868 68.554 22.724C69.346 22.556 70.09 22.28 70.786 21.896C71.29 21.608 71.734 21.488 72.118 21.536C72.502 21.56 72.802 21.692 73.018 21.932C73.258 22.172 73.402 22.472 73.45 22.832C73.498 23.168 73.426 23.516 73.234 23.876C73.066 24.236 72.766 24.548 72.334 24.812C71.494 25.34 70.522 25.736 69.418 26C68.338 26.24 67.33 26.36 66.394 26.36ZM83.6737 26.36C82.6417 26.36 81.5497 26.252 80.3977 26.036C79.2457 25.82 78.2137 25.448 77.3017 24.92C76.9177 24.68 76.6417 24.404 76.4737 24.092C76.3297 23.756 76.2697 23.432 76.2937 23.12C76.3417 22.784 76.4617 22.496 76.6537 22.256C76.8697 22.016 77.1337 21.86 77.4457 21.788C77.7817 21.716 78.1417 21.776 78.5257 21.968C79.4857 22.424 80.3857 22.748 81.2257 22.94C82.0657 23.108 82.8937 23.192 83.7097 23.192C84.8617 23.192 85.7137 23 86.2657 22.616C86.8417 22.208 87.1297 21.68 87.1297 21.032C87.1297 20.48 86.9377 20.06 86.5537 19.772C86.1937 19.46 85.6417 19.232 84.8977 19.088L81.2977 18.404C79.8097 18.116 78.6697 17.576 77.8777 16.784C77.1097 15.968 76.7257 14.924 76.7257 13.652C76.7257 12.5 77.0377 11.504 77.6617 10.664C78.3097 9.824 79.1977 9.176 80.3257 8.72C81.4537 8.264 82.7497 8.036 84.2137 8.036C85.2697 8.036 86.2537 8.156 87.1657 8.396C88.1017 8.612 89.0017 8.96 89.8657 9.44C90.2257 9.632 90.4657 9.884 90.5857 10.196C90.7297 10.508 90.7657 10.832 90.6937 11.168C90.6217 11.48 90.4777 11.768 90.2617 12.032C90.0457 12.272 89.7697 12.428 89.4337 12.5C89.1217 12.548 88.7617 12.476 88.3537 12.284C87.6097 11.9 86.8897 11.624 86.1937 11.456C85.5217 11.288 84.8737 11.204 84.2497 11.204C83.0737 11.204 82.1977 11.408 81.6217 11.816C81.0697 12.224 80.7937 12.764 80.7937 13.436C80.7937 13.94 80.9617 14.36 81.2977 14.696C81.6337 15.032 82.1497 15.26 82.8457 15.38L86.4457 16.064C88.0057 16.352 89.1817 16.88 89.9737 17.648C90.7897 18.416 91.1977 19.448 91.1977 20.744C91.1977 22.496 90.5137 23.876 89.1457 24.884C87.7777 25.868 85.9537 26.36 83.6737 26.36ZM97.0398 26.252C96.3198 26.252 95.7678 26.036 95.3838 25.604C94.9998 25.172 94.8078 24.572 94.8078 23.804V10.592C94.8078 9.8 94.9998 9.2 95.3838 8.792C95.7678 8.36 96.3198 8.144 97.0398 8.144C97.7598 8.144 98.3118 8.36 98.6958 8.792C99.1038 9.2 99.3078 9.8 99.3078 10.592V23.804C99.3078 24.572 99.1158 25.172 98.7318 25.604C98.3478 26.036 97.7838 26.252 97.0398 26.252ZM97.0398 4.796C96.1998 4.796 95.5398 4.592 95.0598 4.184C94.6038 3.752 94.3758 3.164 94.3758 2.42C94.3758 1.652 94.6038 1.064 95.0598 0.655998C95.5398 0.247999 96.1998 0.0439994 97.0398 0.0439994C97.9038 0.0439994 98.5638 0.247999 99.0198 0.655998C99.4758 1.064 99.7038 1.652 99.7038 2.42C99.7038 3.164 99.4758 3.752 99.0198 4.184C98.5638 4.592 97.9038 4.796 97.0398 4.796ZM112.192 32.84C110.896 32.84 109.636 32.72 108.412 32.48C107.212 32.24 106.12 31.868 105.136 31.364C104.68 31.124 104.368 30.836 104.2 30.5C104.056 30.164 104.008 29.816 104.056 29.456C104.128 29.12 104.272 28.82 104.488 28.556C104.728 28.292 105.016 28.112 105.352 28.016C105.688 27.92 106.036 27.968 106.396 28.16C107.452 28.688 108.448 29.024 109.384 29.168C110.344 29.336 111.16 29.42 111.832 29.42C113.44 29.42 114.64 29.024 115.432 28.232C116.248 27.464 116.656 26.312 116.656 24.776V21.536H116.98C116.62 22.76 115.864 23.744 114.712 24.488C113.584 25.208 112.3 25.568 110.86 25.568C109.276 25.568 107.896 25.208 106.72 24.488C105.544 23.744 104.632 22.712 103.984 21.392C103.336 20.072 103.012 18.536 103.012 16.784C103.012 15.464 103.192 14.276 103.552 13.22C103.936 12.14 104.464 11.216 105.136 10.448C105.832 9.68 106.66 9.092 107.62 8.684C108.604 8.252 109.684 8.036 110.86 8.036C112.348 8.036 113.644 8.408 114.748 9.152C115.876 9.872 116.608 10.832 116.944 12.032L116.584 12.932V10.376C116.584 9.632 116.776 9.068 117.16 8.684C117.568 8.3 118.12 8.108 118.816 8.108C119.536 8.108 120.088 8.3 120.472 8.684C120.856 9.068 121.048 9.632 121.048 10.376V24.236C121.048 27.092 120.292 29.24 118.78 30.68C117.268 32.12 115.072 32.84 112.192 32.84ZM112.084 22.148C113.02 22.148 113.824 21.932 114.496 21.5C115.168 21.068 115.684 20.456 116.044 19.664C116.428 18.848 116.62 17.888 116.62 16.784C116.62 15.128 116.212 13.832 115.396 12.896C114.58 11.936 113.476 11.456 112.084 11.456C111.148 11.456 110.344 11.672 109.672 12.104C109 12.536 108.472 13.148 108.088 13.94C107.728 14.732 107.548 15.68 107.548 16.784C107.548 18.44 107.956 19.748 108.772 20.708C109.588 21.668 110.692 22.148 112.084 22.148ZM127.942 26.288C127.222 26.288 126.67 26.096 126.286 25.712C125.902 25.304 125.71 24.728 125.71 23.984V10.376C125.71 9.632 125.902 9.068 126.286 8.684C126.67 8.3 127.21 8.108 127.906 8.108C128.602 8.108 129.142 8.3 129.526 8.684C129.91 9.068 130.102 9.632 130.102 10.376V12.824L129.706 11.924C130.234 10.652 131.05 9.692 132.154 9.044C133.282 8.372 134.554 8.036 135.97 8.036C137.386 8.036 138.55 8.3 139.462 8.828C140.374 9.356 141.058 10.16 141.514 11.24C141.97 12.296 142.198 13.64 142.198 15.272V23.984C142.198 24.728 142.006 25.304 141.622 25.712C141.238 26.096 140.686 26.288 139.966 26.288C139.246 26.288 138.682 26.096 138.274 25.712C137.89 25.304 137.698 24.728 137.698 23.984V15.488C137.698 14.12 137.434 13.124 136.906 12.5C136.402 11.876 135.61 11.564 134.53 11.564C133.21 11.564 132.154 11.984 131.362 12.824C130.594 13.64 130.21 14.732 130.21 16.1V23.984C130.21 25.52 129.454 26.288 127.942 26.288ZM153.213 26.36C152.181 26.36 151.089 26.252 149.937 26.036C148.785 25.82 147.753 25.448 146.841 24.92C146.457 24.68 146.181 24.404 146.013 24.092C145.869 23.756 145.809 23.432 145.833 23.12C145.881 22.784 146.001 22.496 146.193 22.256C146.409 22.016 146.673 21.86 146.985 21.788C147.321 21.716 147.681 21.776 148.065 21.968C149.025 22.424 149.925 22.748 150.765 22.94C151.605 23.108 152.433 23.192 153.249 23.192C154.401 23.192 155.253 23 155.805 22.616C156.381 22.208 156.669 21.68 156.669 21.032C156.669 20.48 156.477 20.06 156.093 19.772C155.733 19.46 155.181 19.232 154.437 19.088L150.837 18.404C149.349 18.116 148.209 17.576 147.417 16.784C146.649 15.968 146.265 14.924 146.265 13.652C146.265 12.5 146.577 11.504 147.201 10.664C147.849 9.824 148.737 9.176 149.865 8.72C150.993 8.264 152.289 8.036 153.753 8.036C154.809 8.036 155.793 8.156 156.705 8.396C157.641 8.612 158.541 8.96 159.405 9.44C159.765 9.632 160.005 9.884 160.125 10.196C160.269 10.508 160.305 10.832 160.233 11.168C160.161 11.48 160.017 11.768 159.801 12.032C159.585 12.272 159.309 12.428 158.973 12.5C158.661 12.548 158.301 12.476 157.893 12.284C157.149 11.9 156.429 11.624 155.733 11.456C155.061 11.288 154.413 11.204 153.789 11.204C152.613 11.204 151.737 11.408 151.161 11.816C150.609 12.224 150.333 12.764 150.333 13.436C150.333 13.94 150.501 14.36 150.837 14.696C151.173 15.032 151.689 15.26 152.385 15.38L155.985 16.064C157.545 16.352 158.721 16.88 159.513 17.648C160.329 18.416 160.737 19.448 160.737 20.744C160.737 22.496 160.053 23.876 158.685 24.884C157.317 25.868 155.493 26.36 153.213 26.36Z" fill="#C74358"/>
</svg>
